PathFileType  4	(X/Y/Z) C:\Users\antoi\Documents\MyRepositories\mobilecap\ResultsAnalysis
DataRate	CameraRate	NumFrames	NumMarkers	Units	OrigDataRate	OrigDataStartFrame	OrigNumFrames
100.0	100.0	4	55	mm	100.0	501	800
Frame#	Time	r_knee			r_shank_antsup			r_ankle			r_calc			r_5meta			r_toe			L_knee			L_shank_antsup			L_ankle			L_calc			L_5meta			L_toe			r_mknee			r_mankle			L_mknee			L_mankle			r_sh2			r_sh3			r_sh4			L_sh2			L_sh3			r_thigh1			r_thigh2			r_thigh3			r_thigh4			r_thigh5			L_thigh1			L_thigh2			L_thigh3			L_thigh4			r.ASIS			r.PSIS			L.ASIS			L.PSIS			C7			R_Shoulder			L_Shoulder			R_Sternum			L_Sternum			R_humerus			R_elbow_med			R_elbow_lat			R_forearm			R_wrist_radius			R_wrist_ulna			L_humerus			L_elbow_med			L_elbow_lat			L_forearm			L_wrist_radius			L_wrist_ulna			R_HJC			L_HJC			R_HJC_reg			L_HJC_reg			
		X1	Y1	Z1	X2	Y2	Z2	X3	Y3	Z3	X4	Y4	Z4	X5	Y5	Z5	X6	Y6	Z6	X7	Y7	Z7	X8	Y8	Z8	X9	Y9	Z9	X10	Y10	Z10	X11	Y11	Z11	X12	Y12	Z12	X13	Y13	Z13	X14	Y14	Z14	X15	Y15	Z15	X16	Y16	Z16	X17	Y17	Z17	X18	Y18	Z18	X19	Y19	Z19	X20	Y20	Z20	X21	Y21	Z21	X22	Y22	Z22	X23	Y23	Z23	X24	Y24	Z24	X25	Y25	Z25	X26	Y26	Z26	X27	Y27	Z27	X28	Y28	Z28	X29	Y29	Z29	X30	Y30	Z30	X31	Y31	Z31	X32	Y32	Z32	X33	Y33	Z33	X34	Y34	Z34	X35	Y35	Z35	X36	Y36	Z36	X37	Y37	Z37	X38	Y38	Z38	X39	Y39	Z39	X40	Y40	Z40	X41	Y41	Z41	X42	Y42	Z42	X43	Y43	Z43	X44	Y44	Z44	X45	Y45	Z45	X46	Y46	Z46	X47	Y47	Z47	X48	Y48	Z48	X49	Y49	Z49	X50	Y50	Z50	X51	Y51	Z51	X52	Y52	Z52	X53	Y53	Z53	X54	Y54	Z54	X55	Y55	Z55	

501	5.00000000	-219.00086	607.25717	-669.69669	-209.35224	464.87617	-661.33791	-286.88579	103.34474	-629.07770	-347.04028	72.15291	-689.30644	-151.56251	40.35727	-599.36995	-113.72161	64.94398	-652.95795	-242.07375	608.14796	-1112.97531	-207.14947	415.75552	-1121.83530	-294.87259	116.03310	-1160.29525	-350.02624	74.53834	-1102.41582	-150.76242	31.90866	-1194.57530	-111.85014	64.65039	-1135.86581	-240.44061	587.46973	-788.03853	-254.01455	128.72100	-727.71122	-233.99138	579.86518	-992.35192	-252.04932	125.54835	-1068.71210	-219.06352	351.76492	-654.28280	-271.69771	472.62177	-620.22766	-285.51891	361.73741	-605.40494	-278.44764	434.98806	-1169.22604	-293.74721	315.74892	-1169.02627	-138.51949	895.96656	-676.29892	-142.46882	785.59286	-670.18622	-205.80489	763.95582	-656.04517	-250.48930	901.40925	-692.67338	-255.42209	783.04159	-674.39316	-144.76893	894.21670	-1090.49231	-161.17756	761.81348	-1102.17459	-250.63399	913.38496	-1096.65551	-267.72242	775.90891	-1111.54843	-74.62200	1172.16214	-760.67499	-267.00062	1204.96073	-827.50885	-110.06762	1162.75896	-1033.45339	-278.77822	1208.01080	-918.97575	-273.95796	1679.49322	-890.93133	-190.95009	1659.58069	-718.98573	-227.56200	1665.81091	-1067.75254	-113.35986	1629.69858	-873.03609	-117.22070	1631.36528	-924.03423	-193.30391	1392.66472	-636.20549	-272.35880	1281.33108	-671.48357	-268.29720	1302.89336	-603.79556	-190.68949	1110.17581	-551.07103	-162.78394	1017.91748	-539.78879	-197.33274	1019.06108	-521.88428	-204.43370	1373.13248	-1134.70993	-281.52918	1293.93993	-1083.80313	-268.86293	1293.10256	-1157.69834	-189.60900	1107.13932	-1203.31110	-160.21823	1032.17712	-1205.14037	-189.32260	1031.80774	-1224.46593	-158.19907	1077.96090	-786.67326	-189.11888	1076.50840	-981.70860	-148.56230	1080.81896	-793.72371	-171.74840	1086.82357	-973.79121	
502	5.01000000	-218.91488	607.34028	-669.60217	-209.35970	464.87325	-661.32046	-286.89036	103.34927	-629.08285	-347.05196	72.14748	-689.33141	-151.57534	40.33160	-599.32635	-113.70644	64.93518	-652.97456	-242.08252	608.14933	-1112.96931	-207.15809	415.73100	-1121.85090	-294.87639	116.02505	-1160.29175	-350.04387	74.54056	-1102.42204	-150.76157	31.90447	-1194.58269	-111.85046	64.65426	-1135.86919	-240.44210	587.47922	-788.03995	-254.05089	128.58999	-727.61193	-234.02065	579.87950	-992.36679	-252.07743	125.53446	-1068.66306	-219.07376	351.74089	-654.28807	-271.68797	472.63061	-620.20543	-285.60312	361.79372	-605.26916	-278.46298	434.98807	-1169.23630	-293.75818	315.74963	-1169.01499	-138.55060	895.90255	-676.27957	-142.56405	785.68615	-670.09625	-205.81762	763.95159	-656.07806	-250.51770	901.41182	-692.69198	-255.47043	783.06249	-674.42000	-144.76587	894.20815	-1090.46789	-161.19538	761.81887	-1102.13502	-250.63537	913.38609	-1096.68326	-267.72587	775.91265	-1111.54879	-74.60608	1172.25077	-760.72348	-267.00395	1204.97084	-827.50611	-110.14614	1162.89273	-1033.63967	-278.74473	1208.03082	-918.91486	-273.96918	1679.49868	-890.97744	-190.93972	1659.62516	-718.99505	-227.49078	1665.81919	-1067.81275	-113.35651	1629.68971	-873.02402	-117.19007	1631.38959	-924.06212	-193.31442	1392.72232	-636.15313	-273.36930	1280.73442	-671.51487	-268.81256	1303.08106	-604.11622	-190.70046	1110.23586	-551.06164	-162.87776	1017.97623	-539.79489	-197.39124	1019.15782	-521.82550	-204.40608	1373.10444	-1134.69898	-281.48767	1293.92087	-1083.79787	-268.83219	1293.09494	-1157.71383	-189.61435	1107.05704	-1203.17163	-160.20310	1032.15802	-1205.07949	-189.30003	1031.79597	-1224.44096	-158.11156	1078.00639	-786.75934	-189.12406	1076.59662	-981.78028	-148.57573	1080.83558	-793.83041	-171.71721	1086.86698	-974.00076	
503	5.02000000	-218.85335	607.38619	-669.54146	-209.35259	464.87638	-661.31890	-286.89481	103.34782	-629.08106	-347.04635	72.13461	-689.33838	-151.58990	40.29986	-599.22417	-113.69723	64.91807	-652.95144	-242.08334	608.15050	-1112.96335	-207.18027	415.71927	-1121.80840	-294.87973	116.01984	-1160.28506	-350.03235	74.54614	-1102.41198	-150.76133	31.91809	-1194.58579	-111.85711	64.65978	-1135.86327	-240.44975	587.48312	-788.04370	-254.08908	128.46705	-727.54963	-234.02775	579.84848	-992.39154	-252.09765	125.50537	-1068.65479	-219.07669	351.73119	-654.31995	-271.67174	472.60534	-620.19239	-285.67431	361.81511	-605.20273	-278.48663	434.99502	-1169.23882	-293.75578	315.76153	-1169.01933	-138.48674	895.78924	-676.28923	-142.68090	785.77213	-670.02580	-205.86268	763.94747	-656.05375	-250.53971	901.44384	-692.70708	-255.52698	783.03140	-674.43831	-144.75981	894.19960	-1090.41323	-161.20631	761.80932	-1102.10222	-250.61186	913.41200	-1096.72375	-267.72450	775.90956	-1111.54970	-74.58165	1172.33208	-760.76473	-267.01782	1204.98184	-827.50376	-110.16735	1162.97405	-1033.85076	-278.73203	1208.03438	-918.89113	-273.99036	1679.50582	-891.03747	-190.93143	1659.66517	-719.00060	-227.42427	1665.83349	-1067.91926	-113.36932	1629.68013	-873.05802	-117.16398	1631.37874	-924.09256	-193.31676	1392.81277	-636.08206	-274.77476	1279.28152	-671.85851	-269.12507	1303.23250	-604.27928	-190.72180	1110.28558	-551.03805	-162.93761	1018.00238	-539.78893	-197.42094	1019.21340	-521.81700	-204.37551	1373.08313	-1134.69616	-281.46781	1293.88823	-1083.78406	-268.80400	1293.08856	-1157.72137	-189.60764	1106.99160	-1203.05317	-160.18632	1032.14500	-1205.05195	-189.26615	1031.77682	-1224.39941	-158.03140	1078.04788	-786.83871	-189.11354	1076.65070	-981.84873	-148.57048	1080.84409	-793.91326	-171.68049	1086.86620	-974.20387	
504	5.03000000	-218.85689	607.35111	-669.54760	-209.36497	464.86079	-661.31678	-286.89215	103.35187	-629.07042	-347.03941	72.12865	-689.33460	-151.59399	40.29383	-599.16234	-113.69988	64.90827	-652.92827	-242.08407	608.15302	-1112.96058	-207.21652	415.73192	-1121.72497	-294.88601	116.04167	-1160.27788	-350.01889	74.52790	-1102.38124	-150.75529	31.93786	-1194.58429	-111.82964	64.66826	-1135.88221	-240.45520	587.47463	-788.04407	-254.07361	128.47294	-727.58876	-234.02699	579.79924	-992.37556	-252.07640	125.46493	-1068.65611	-219.10470	351.72108	-654.27841	-271.66094	472.56035	-620.25459	-285.68965	361.80844	-605.21150	-278.49786	434.99761	-1169.20220	-293.75322	315.77999	-1169.02236	-138.54327	895.78571	-676.26387	-142.68622	785.76223	-670.02681	-205.92273	763.92661	-656.02574	-250.53341	901.46680	-692.70724	-255.54267	782.98976	-674.43140	-144.75728	894.19028	-1090.37318	-161.20481	761.81042	-1102.07750	-250.59974	913.44404	-1096.72660	-267.71408	775.90671	-1111.55325	-74.60607	1172.27228	-760.70651	-267.03381	1204.98272	-827.50462	-110.12922	1162.93579	-1033.72545	-278.75767	1208.00105	-918.91175	-273.99919	1679.50695	-891.07455	-190.91555	1659.69404	-718.99977	-227.37859	1665.83908	-1067.99923	-113.37337	1629.69222	-873.12145	-117.13968	1631.35742	-924.12048	-193.30577	1392.90353	-636.04360	-275.48820	1278.36986	-672.12761	-269.12221	1303.32357	-604.22372	-190.76666	1110.33300	-550.97979	-162.95761	1018.03288	-539.76456	-197.43842	1019.24625	-521.80238	-204.35309	1373.07109	-1134.69264	-281.46026	1293.86295	-1083.77914	-268.77610	1293.08217	-1157.72985	-189.57601	1106.93594	-1202.97147	-160.17407	1032.13363	-1205.03650	-189.24520	1031.76858	-1224.36134	-158.08987	1078.01478	-786.78588	-189.10422	1076.61576	-981.80666	-148.59846	1080.89066	-793.80172	-171.71625	1086.84239	-974.04353	
